<svg viewBox="0 0 200 200" xmlns="http://www.w3.org/2000/svg">
  <!-- Gradient definitions -->
  <defs>
    <linearGradient id="blueGradient" x1="0%" y1="0%" x2="100%" y2="100%">
      <stop offset="0%" stop-color="#2979FF" />
      <stop offset="100%" stop-color="#1E88E5" />
    </linearGradient>
    <linearGradient id="pinkGradient" x1="0%" y1="0%" x2="100%" y2="100%">
      <stop offset="0%" stop-color="#FF4081" />
      <stop offset="100%" stop-color="#F50057" />
    </linearGradient>
    <filter id="shadow" x="-20%" y="-20%" width="140%" height="140%">
      <feGaussianBlur in="SourceAlpha" stdDeviation="3" />
      <feOffset dx="0" dy="2" result="offsetblur" />
      <feComponentTransfer>
        <feFuncA type="linear" slope="0.3" />
      </feComponentTransfer>
      <feMerge>
        <feMergeNode />
        <feMergeNode in="SourceGraphic" />
      </feMerge>
    </filter>
  </defs>

  <!-- Outer circle (clock face) -->
  <circle cx="100" cy="100" r="90" fill="white" stroke="url(#blueGradient)" stroke-width="4" filter="url(#shadow)" />

  <!-- Small tick marks for hours -->
  <g stroke="#455A64" stroke-width="2">
    <line x1="100" y1="22" x2="100" y2="30" />
    <line x1="139" y1="32" x2="135" y2="39" />
    <line x1="168" y1="61" x2="161" y2="68" />
    <line x1="178" y1="100" x2="170" y2="100" />
    <line x1="168" y1="139" x2="161" y2="132" />
    <line x1="139" y1="168" x2="132" y2="161" />
    <line x1="100" y1="178" x2="100" y2="170" />
    <line x1="61" y1="168" x2="68" y2="161" />
    <line x1="32" y1="139" x2="39" y2="132" />
    <line x1="22" y1="100" x2="30" y2="100" />
    <line x1="32" y1="61" x2="39" y2="68" />
    <line x1="61" y1="32" x2="68" y2="39" />
  </g>

  <!-- Clock hands -->
  <line x1="100" y1="100" x2="100" y2="45" stroke="url(#blueGradient)" stroke-width="5" stroke-linecap="round" />
  <line x1="100" y1="100" x2="140" y2="125" stroke="url(#pinkGradient)" stroke-width="5" stroke-linecap="round" />

  <!-- Center dot -->
  <circle cx="100" cy="100" r="8" fill="url(#blueGradient)" />

  <!-- Speedometer elements -->
  <path d="M40,150 A70,70 0 0,1 160,150" fill="none" stroke="url(#blueGradient)" stroke-width="6" stroke-linecap="round" />

  <!-- Speed indicator -->
  <polygon points="100,125 94,150 106,150" fill="url(#pinkGradient)" />

  <!-- Speed ticks -->
  <g stroke="#455A64" stroke-width="2">
    <line x1="40" y1="150" x2="45" y2="145" />
    <line x1="70" y1="135" x2="74" y2="131" />
    <line x1="100" y1="130" x2="100" y2="125" />
    <line x1="130" y1="135" x2="126" y2="131" />
    <line x1="160" y1="150" x2="155" y2="145" />
  </g>

  <!-- "T" Symbol -->
  <text x="100" y="98" font-family="'Inter', sans-serif" font-size="40" font-weight="700" text-anchor="middle" fill="white">T</text>
</svg>